PathFileType	4	(X/Y/Z)	..\data\2014051\dynamic\2014051_C4_04.trc
DataRate	CameraRate	NumFrames	NumMarkers	Units	OrigDataRate	OrigDataStartFrame	OrigNumFrames
100.000000	100.000000	4	44	mm	100.000000	174	199
Frame#	Time	L_IAS			L_IPS			R_IPS			R_IAS			L_FTC			L_FLE			L_FME			L_FAX			L_TTC			L_FAL			L_TAM			L_FCC			L_FM1			L_FM2			L_FM5			R_FTC			R_FLE			R_FME			R_FAX			R_TTC			R_FAL			R_TAM			R_FCC			R_FM1			R_FM2			R_FM5			CV7			TV10			SXS			SJN			L_SAE			L_HLE			L_HME			L_RSP			L_UHE			L_HM2			L_HM5			R_SAE			R_HLE			R_HME			R_RSP			R_UHE			R_HM2			R_HM5			
		X1	Y1	Z1	X2	Y2	Z2	X3	Y3	Z3	X4	Y4	Z4	X5	Y5	Z5	X6	Y6	Z6	X7	Y7	Z7	X8	Y8	Z8	X9	Y9	Z9	X10	Y10	Z10	X11	Y11	Z11	X12	Y12	Z12	X13	Y13	Z13	X14	Y14	Z14	X15	Y15	Z15	X16	Y16	Z16	X17	Y17	Z17	X18	Y18	Z18	X19	Y19	Z19	X20	Y20	Z20	X21	Y21	Z21	X22	Y22	Z22	X23	Y23	Z23	X24	Y24	Z24	X25	Y25	Z25	X26	Y26	Z26	X27	Y27	Z27	X28	Y28	Z28	X29	Y29	Z29	X30	Y30	Z30	X31	Y31	Z31	X32	Y32	Z32	X33	Y33	Z33	X34	Y34	Z34	X35	Y35	Z35	X36	Y36	Z36	X37	Y37	Z37	X38	Y38	Z38	X39	Y39	Z39	X40	Y40	Z40	X41	Y41	Z41	X42	Y42	Z42	X43	Y43	Z43	X44	Y44	Z44	

175	1.74	610.7274169921876	1097.016845703125	174.7259216308595	404.2701721191407	1101.738891601563	281.7747497558595	410.3655090332032	1104.996826171875	350.2760314941407	620.8793945312501	1095.516723632813	443.5433044433595	557.2683715820314	975.9851074218752	114.018653869629	699.9292602539064	569.5257568359376	143.3897552490236	711.7673339843751	573.8030395507814	274.4680175781252	683.8342285156251	499.6373901367189	139.4246978759767	741.7082519531251	479.9922790527345	196.1219024658205	612.8151245117189	89.46425628662111	165.3905487060548	637.6818847656251	108.7486648559571	258.4725036621095	560.8897094726564	45.67060852050782	221.4363098144532	775.9329223632815	35.64043045043946	246.5622558593751	771.7042236328127	44.31763076782227	189.3376617431642	735.2389526367189	29.31956100463868	147.7787475585939	540.5621948242188	969.2219238281252	502.5713195800783	476.6467895507813	536.7187500000001	416.8709716796877	479.6066894531251	547.2224121093751	288.3685913085939	437.5981750488282	475.551239013672	418.4972229003908	504.0359497070313	457.5511779785157	351.7455444335939	383.2973937988281	63.532772064209	352.8247680664064	428.6493530273438	87.74331665039064	266.0794372558595	341.1809387207031	23.33981323242188	286.1533508300782	566.8015136718751	18.434476852417	290.6324768066407	558.8451538085939	32.45488739013673	349.8868408203126	511.0425415039063	19.45652198791504	396.1164550781252	453.2410888671876	1630.803588867188	299.4914550781251	412.3488464355469	1267.864379882813	317.0847778320314	628.7627563476564	1354.562377929688	295.086639404297	579.4265136718751	1531.582641601563	288.790008544922	516.6000366210939	1554.276611328125	107.5500946044923	437.1439514160157	1177.46826171875	20.86605262756353	409.5418701171876	1165.731689453125	106.0745391845704	558.0638427734376	917.2734985351565	71.29249572753915	505.6792907714845	909.8038330078127	4.761111259460512	593.9227294921876	809.0894165039065	70.27901458740243	501.8011169433595	813.189636230469	6.872864246368471	564.6832885742188	1548.8056640625	491.819061279297	548.7342529296875	1189.777099609375	605.0496215820315	494.9671325683594	1161.753295898438	526.2139892578127	682.3248291015625	945.5140380859377	520.2832031250002	650.1587524414062	925.0464477539065	594.8103637695315	747.2772827148438	845.5891113281252	521.742370605469	655.2921142578125	825.470642089844	583.8547973632815	
176	1.75	620.4802246093751	1095.885375976563	174.7896881103517	413.8910217285157	1100.617065429688	281.703094482422	419.9249267578126	1103.862426757813	350.2054748535157	630.3284912109376	1094.1708984375	443.5794067382814	566.8674926757814	974.8526611328127	114.0930862426759	711.0208740234376	568.7409057617189	144.5758056640626	722.9320068359376	573.3617553710939	275.6056213378908	697.2003784179689	498.3512573242189	140.6150512695314	756.0182495117189	481.0209045410157	197.139617919922	646.3444213867189	85.36499786376955	166.9238891601564	670.0469970703126	105.8107528686524	259.9520263671876	596.1155395507814	39.68651199340821	223.2127990722658	811.385192871094	38.74570846557618	248.826126098633	806.9663085937502	46.64810180664063	191.5143432617189	771.357604980469	29.94763183593751	149.9736633300782	549.6123046875	968.0389404296877	502.8231506347658	481.3004455566407	536.2923583984376	416.4844360351564	484.0373535156251	546.9963989257814	287.945770263672	441.6350097656251	475.462860107422	418.0986938476564	507.8245239257813	456.9234008789064	351.3328247070314	383.6963806152344	63.82532882690431	352.1135559082032	429.4512023925782	87.88337707519533	265.4982299804689	341.6293640136719	23.81719970703125	285.1523742675782	567.1051025390626	18.24309539794922	290.7866516113282	559.0510253906251	32.34490203857423	349.988250732422	510.9205627441407	19.47526550292969	396.0242004394533	463.4264221191407	1629.6611328125	299.1107482910157	422.1057434082032	1266.798217773438	317.0997314453126	638.6387939453126	1353.228393554688	294.9945373535157	589.5043334960939	1530.3203125	288.5026245117189	526.7083740234376	1552.860595703125	107.2066497802735	445.648162841797	1176.251220703125	21.28555870056158	418.086395263672	1164.761474609375	106.5078125000001	563.9840698242189	914.872253417969	71.43864440917977	511.4753723144532	907.978210449219	4.863763332367007	598.4755249023439	806.2315673828127	70.47052764892587	506.628143310547	811.4345703125002	6.858132362365787	574.8505859375	1547.670532226563	491.4590148925783	559.4775390625	1188.733764648438	604.954040527344	505.9829406738282	1160.6552734375	526.1540527343752	693.9976806640625	945.0421142578127	520.0219726562502	661.9231567382812	924.4008789062502	594.5486450195315	759.3591918945312	845.3936767578127	521.4245605468752	667.4378662109375	824.8496093750002	583.5169677734377	
177	1.76	630.3613891601564	1094.6455078125	174.8773803710939	423.5946960449219	1099.427001953125	281.5376586914064	429.5548095703126	1102.651245117188	350.0496826171876	639.8049316406251	1092.800659179688	443.6250610351564	576.5077514648439	973.5791625976565	114.1657180786134	721.6242065429689	567.6919555664064	145.8074951171876	733.6987304687501	572.6345214843751	276.7933349609377	710.0197753906251	496.9252014160157	141.8567657470704	769.769958496094	481.9111633300782	198.1490020751955	679.3389892578126	82.13683319091798	168.5594787597657	702.1142578125001	103.6389312744141	261.4486083984377	631.0563964843751	34.73383712768555	225.2491760253908	846.1689453125002	42.63741302490235	250.7384185791017	841.483825683594	49.74053192138673	193.3507537841799	806.6558227539065	31.4106731414795	151.9377288818361	558.733642578125	966.8062744140627	503.075408935547	486.1769104003907	535.8420410156251	416.0971679687502	488.6966552734376	546.7429199218751	287.516815185547	445.8917541503907	475.3581848144532	417.6921997070314	511.8183288574219	456.2506103515626	350.9196777343751	384.1293640136719	64.15676879882814	351.4100036621095	430.3046875000001	88.04187011718751	264.9353942871095	342.0861206054688	24.38122558593751	284.1855468750001	567.4027709960939	18.05900764465332	290.9234924316407	559.2642211914064	32.25099182128907	350.0729370117189	510.8013610839844	19.51132202148438	395.9067993164064	473.6571044921876	1628.436889648438	298.6757812500001	431.8899230957032	1265.658081054688	317.0111083984376	648.5678100585939	1351.819213867188	294.8465576171876	599.6290893554689	1528.97802734375	288.1631774902345	536.9025268554689	1551.380737304688	106.8091659545899	454.3440856933595	1174.952392578125	21.67149734497076	426.795379638672	1163.710571289063	106.9040451049806	570.0086059570314	912.3850097656252	71.56239318847665	517.4398803710939	906.1066894531252	4.923234462738101	603.1001586914064	803.295837402344	70.62870788574227	511.5490112304689	809.645690917969	6.773687839508121	585.05859375	1546.432861328125	491.0432739257814	570.1820678710938	1187.5771484375	604.765808105469	516.9700317382812	1159.448852539063	525.954284667969	705.5831298828125	944.4172973632815	519.7178955078127	673.5628662109375	923.6107177734377	594.2336425781252	771.3117675781251	845.018249511719	521.0845947265627	679.4329833984375	824.0897216796877	583.133239746094	
178	1.77	640.3832397460939	1093.303100585938	174.9796142578126	433.3946838378907	1098.171630859375	281.2747802734376	439.2652282714844	1101.37255859375	349.801971435547	649.3171386718751	1091.4130859375	443.6793212890627	586.2068481445314	972.1765136718752	114.2320556640626	731.7914428710939	566.3919677734376	147.0748748779298	744.0656738281251	571.6504516601564	278.0287475585939	722.3182373046876	495.3600463867189	143.1443634033204	782.9746704101565	482.6647338867189	199.1612701416017	711.6434326171876	79.74608612060548	170.2744598388673	733.7386474609376	102.2377014160157	262.9467163085939	665.5522460937501	30.79475975036622	227.5166473388673	880.1585083007815	47.30474853515626	252.2416381835939	875.1213989257815	53.58530426025392	194.7925262451174	840.9780883789065	33.68933486938477	153.6243133544923	567.924072265625	965.5396118164065	503.3174438476564	491.2752990722657	535.3716430664064	415.7214660644533	493.6074829101563	546.4514160156251	287.0956420898439	450.3697814941407	475.2445068359376	417.2885131835939	516.0234375000001	455.5286560058595	350.5198669433595	384.5912780761719	64.53756713867189	350.730682373047	431.2026977539063	88.22554779052736	264.404510498047	342.5461120605469	25.03804016113282	283.2750244140626	567.6898803710939	17.88972663879395	291.0435485839845	559.4802856445314	32.17636108398438	350.144012451172	510.6851501464844	19.56596946716309	395.7657470703127	483.9381408691407	1627.140014648438	298.1858825683595	441.7146606445313	1264.448486328125	316.8049621582032	658.5588378906251	1350.344360351563	294.6480407714845	609.8095092773439	1527.565063476563	287.7733459472657	547.1871948242189	1549.838500976563	106.359115600586	463.2331848144532	1173.576782226563	22.0159816741944	435.6712036132814	1162.581298828125	107.2532577514649	576.1574096679689	909.8264770507815	71.65346527099618	523.5834350585939	904.195007324219	4.934040069580143	607.8247680664064	800.3004150390627	70.74715423583993	516.5845947265626	807.829528808594	6.623056411743229	595.3090209960938	1545.105834960938	490.5743408203127	580.8660278320312	1186.318725585938	604.4854736328127	527.9303588867188	1158.138061523438	525.6262817382815	717.0843505859375	943.6430664062502	519.3723754882815	685.086669921875	922.6851196289065	593.870300292969	783.1334228515626	844.4628906250002	520.7226562500002	691.27783203125	823.1973266601565	582.7104492187502	
